# This file uses centimeters as units for non-parametric coordinates.

mtllib crystal.mtl
g default
v 0.145700 1.873475 -0.252359
v 0.135807 1.873475 -0.255010
v 0.135271 1.883668 -0.253861
v 0.133507 1.893522 -0.250587
v 0.143167 1.893560 -0.247967
v 0.150284 1.893597 -0.240806
v 0.152237 1.883646 -0.244043
v 0.152941 1.873475 -0.245118
v -0.145700 1.873475 -0.252359
v -0.152941 1.873475 -0.245118
v -0.152215 1.883668 -0.244079
v -0.150261 1.893522 -0.240914
v -0.143162 1.893560 -0.247970
v -0.133402 1.893597 -0.250553
v -0.135229 1.883646 -0.253862
v -0.135807 1.873475 -0.255010
v -0.291399 1.873475 -0.000000
v -0.288749 1.873475 0.009892
v -0.287486 1.883668 0.009782
v -0.283768 1.893522 0.009673
v -0.286329 1.893560 -0.000003
v -0.283686 1.893597 -0.009747
v -0.287465 1.883646 -0.009820
v -0.288749 1.873475 -0.009892
v -0.145700 1.873475 0.252359
v -0.135807 1.873475 0.255010
v -0.135271 1.883668 0.253861
v -0.133507 1.893522 0.250587
v -0.143167 1.893560 0.247967
v -0.150284 1.893597 0.240806
v -0.152237 1.883646 0.244043
v -0.152941 1.873475 0.245118
v 0.145700 1.873475 0.252359
v 0.152941 1.873475 0.245118
v 0.152215 1.883668 0.244079
v 0.150261 1.893522 0.240914
v 0.143162 1.893560 0.247970
v 0.133402 1.893597 0.250553
v 0.135229 1.883646 0.253862
v 0.135807 1.873475 0.255010
v 0.291399 1.873475 0.000000
v 0.288749 1.873475 -0.009892
v 0.287486 1.883668 -0.009782
v 0.283768 1.893522 -0.009673
v 0.286329 1.893560 0.000003
v 0.283686 1.893597 0.009747
v 0.287465 1.883646 0.009820
v 0.288749 1.873475 0.009892
v 0.015772 2.417536 -0.000000
v 0.017415 2.411134 -0.010055
v 0.007885 2.417536 -0.013659
v -0.000000 2.411134 -0.020109
v -0.007886 2.417536 -0.013659
v -0.017415 2.411134 -0.010055
v -0.015772 2.417536 0.000000
v -0.017415 2.411134 0.010055
v -0.007886 2.417536 0.013659
v -0.000000 2.411134 0.020109
v 0.007886 2.417536 0.013659
v 0.017415 2.411134 0.010055
v 0.285334 0.454223 0.000000
v 0.282700 0.454223 -0.009831
v 0.287168 0.463921 -0.009906
v 0.288698 0.474110 -0.009980
v 0.291384 0.474072 -0.000020
v 0.288741 0.474034 0.009906
v 0.287200 0.463935 0.009868
v 0.282700 0.454223 0.009831
v 0.142667 0.454223 -0.247107
v 0.132836 0.454223 -0.249741
v 0.135006 0.463921 -0.253648
v 0.135706 0.474110 -0.255010
v 0.145675 0.474072 -0.252356
v 0.152949 0.474034 -0.245104
v 0.152146 0.463935 -0.243789
v 0.149864 0.454223 -0.239910
v 0.142667 0.454223 0.247107
v 0.149864 0.454223 0.239910
v 0.152163 0.463921 0.243742
v 0.152992 0.474110 0.245030
v 0.145709 0.474072 0.252336
v 0.135792 0.474034 0.255010
v 0.135054 0.463935 0.253657
v 0.132836 0.454223 0.249741
v -0.142667 0.454223 0.247107
v -0.132836 0.454223 0.249741
v -0.135006 0.463921 0.253648
v -0.135706 0.474110 0.255010
v -0.145675 0.474072 0.252356
v -0.152949 0.474034 0.245104
v -0.152146 0.463935 0.243789
v -0.149864 0.454223 0.239910
v -0.285334 0.454223 -0.000000
v -0.282700 0.454223 0.009831
v -0.287168 0.463921 0.009906
v -0.288698 0.474110 0.009980
v -0.291384 0.474072 0.000020
v -0.288741 0.474034 -0.009906
v -0.287200 0.463935 -0.009868
v -0.282700 0.454223 -0.009831
v -0.142667 0.454223 -0.247107
v -0.149864 0.454223 -0.239910
v -0.152163 0.463921 -0.243742
v -0.152992 0.474110 -0.245030
v -0.145709 0.474072 -0.252336
v -0.135791 0.474034 -0.255010
v -0.135054 0.463935 -0.253657
v -0.132836 0.454223 -0.249741
v -0.007789 0.030779 -0.013490
v 0.000000 0.036574 -0.020109
v 0.007789 0.030779 -0.013490
v 0.017415 0.036574 -0.010055
v 0.015577 0.030779 -0.000000
v 0.017415 0.036574 0.010055
v 0.007789 0.030779 0.013490
v -0.000000 0.036574 0.020109
v -0.007789 0.030779 0.013490
v -0.017415 0.036574 0.010055
v -0.015577 0.030779 -0.000000
v -0.017415 0.036574 -0.010055
v 0.145059 1.883642 -0.251238
v -0.145049 1.883642 -0.251244
v -0.290108 1.883642 -0.000006
v -0.145059 1.883642 0.251238
v 0.145049 1.883642 0.251244
v 0.290108 1.883642 0.000006
v -0.000000 2.426647 0.000000
v 0.289837 0.463932 -0.000008
v 0.144912 0.463932 -0.251010
v 0.144925 0.463932 0.251002
v -0.144912 0.463932 0.251010
v -0.289837 0.463932 0.000008
v -0.144925 0.463932 -0.251002
v -0.000000 0.022630 -0.000000
vt 0.615302 0.033494
vt 0.257497 0.508673
vt 0.742445 0.508739
vt 0.384698 0.033494
vt 0.370151 0.041892
vt 0.483572 0.960572
vt 0.339385 0.508673
vt 0.254849 0.241601
vt 0.254849 0.258399
vt 0.490143 0.960572
vt 0.421273 0.508673
vt 0.370151 0.458107
vt 0.384698 0.466506
vt 0.496714 0.960572
vt 0.503161 0.508673
vt 0.615302 0.466506
vt 0.629849 0.458107
vt 0.503286 0.960572
vt 0.585049 0.508673
vt 0.745151 0.258399
vt 0.509857 0.960572
vt 0.666937 0.508673
vt 0.516428 0.960572
vt 0.629856 0.041904
vt 0.951118 0.020662
vt 0.745144 0.258410
vt 0.629892 0.458033
vt 0.048881 0.020662
vt 0.500000 0.921143
vt 0.384711 0.033494
vt 0.951119 0.020662
vt 0.500000 0.921143
vt 0.615289 0.466506
vt 0.384784 0.466506
vt 0.500000 0.921143
vt 0.370144 0.458096
vt 0.254892 0.258473
vt 0.500000 0.921143
vt 0.254856 0.241590
vt 0.370108 0.041967
vt 0.500000 0.921143
vt 0.048881 0.020662
vt 0.500000 0.921143
vt 0.333061 0.508739
vt 0.414938 0.508739
vt 0.496815 0.508739
vt 0.578692 0.508739
vt 0.660569 0.508739
vt 0.629849 0.041893
vt 0.745151 0.241601
vt 0.745108 0.241527
vt 0.615216 0.033494
vt 0.048881 0.020662
vt 0.951119 0.020663
vt 0.048881 0.020662
vt 0.951119 0.020662
vt 0.048881 0.020662
vt 0.951119 0.020662
vt 0.048881 0.020662
vt 0.951119 0.020662
vt 0.622596 0.037666
vt 0.252904 0.500000
vt 0.616288 0.033494
vt 0.745710 0.508579
vt 0.254290 0.508579
vt 0.629369 0.041060
vt 0.747087 0.500000
vt 0.377412 0.037662
vt 0.336237 0.500000
vt 0.370644 0.041038
vt 0.335929 0.507789
vt 0.383737 0.033494
vt 0.330421 0.500000
vt 0.254815 0.249995
vt 0.419571 0.500000
vt 0.254356 0.257544
vt 0.417964 0.507789
vt 0.254369 0.242433
vt 0.413754 0.500000
vt 0.377404 0.462334
vt 0.502904 0.500000
vt 0.383712 0.466506
vt 0.500000 0.507789
vt 0.370631 0.458940
vt 0.497088 0.500000
vt 0.622589 0.462338
vt 0.586237 0.500000
vt 0.629356 0.458962
vt 0.582034 0.507789
vt 0.616263 0.466506
vt 0.580421 0.500000
vt 0.745184 0.250005
vt 0.669571 0.500000
vt 0.745644 0.242456
vt 0.664070 0.507789
vt 0.745631 0.257567
vt 0.663754 0.500000
vt 0.511360 0.965919
vt 0.492638 0.985276
vt 0.507362 0.985276
vt 0.488640 0.965919
vt 0.494320 0.965920
vt 0.500000 0.965919
vt 0.505681 0.965919
vt 0.989910 0.020181
vt 0.010090 0.020181
vt 0.745589 0.242361
vt 0.964715 -0.000000
vt 0.745160 0.249992
vt 0.035183 -0.000000
vt 0.745602 0.257617
vt 0.989910 0.020181
vt 0.010090 0.020181
vt 0.616179 0.033494
vt 0.964715 -0.000000
vt 0.622573 0.037681
vt 0.035183 -0.000000
vt 0.629398 0.041111
vt 0.989910 0.020181
vt 0.010090 0.020181
vt 0.629411 0.458867
vt 0.964715 -0.000000
vt 0.622587 0.462311
vt 0.035183 -0.000000
vt 0.616204 0.466506
vt 0.989910 0.020181
vt 0.010090 0.020181
vt 0.383821 0.466506
vt 0.964715 -0.000000
vt 0.377427 0.462319
vt 0.035183 -0.000000
vt 0.370602 0.458889
vt 0.989910 0.020181
vt 0.010090 0.020181
vt 0.254411 0.257639
vt 0.964715 -0.000000
vt 0.254840 0.250008
vt 0.035183 -0.000000
vt 0.254398 0.242383
vt 0.989910 0.020180
vt 0.010090 0.020180
vt 0.370589 0.041133
vt 0.964715 -0.000000
vt 0.377413 0.037689
vt 0.035183 -0.000000
vt 0.383796 0.033494
vt 0.483426 0.966852
vt 0.516574 0.966852
vt 0.483426 0.966852
vt 0.516574 0.966852
vt 0.483426 0.966852
vt 0.516574 0.966852
vt 0.483426 0.966852
vt 0.516574 0.966852
vt 0.483426 0.966852
vt 0.516574 0.966852
vt 0.483426 0.966852
vt 0.516574 0.966852
vt 0.250000 0.500000
vt 0.750000 0.500000
vt 0.625000 0.033494
vt 0.333333 0.500000
vt 0.375000 0.033494
vt 0.416667 0.500000
vt 0.250000 0.250000
vt 0.500000 0.500000
vt 0.375000 0.466506
vt 0.583333 0.500000
vt 0.625000 0.466506
vt 0.666667 0.500000
vt 0.750000 0.250000
vt 0.500000 1.000000
vt 0.750000 0.250000
vt 0.000000 0.000000
vt 1.000000 0.000000
vt 0.625000 0.033494
vt 0.000000 0.000000
vt 1.000000 0.000000
vt 0.625000 0.466506
vt 0.000000 0.000000
vt 1.000000 0.000000
vt 0.375000 0.466506
vt 0.000000 0.000000
vt 1.000000 0.000000
vt 0.250000 0.250000
vt 0.000000 0.000000
vt 1.000000 0.000000
vt 0.375000 0.033494
vt 0.000000 0.000000
vt 1.000000 0.000000
vt 0.500000 1.000000
vt 0.500000 1.000000
vt 0.500000 1.000000
vt 0.500000 1.000000
vt 0.500000 1.000000
vt 0.500000 1.000000
vn 0.009426 0.000791 -0.999955
vn 0.499077 0.000882 -0.866557
vn 0.499596 -0.001082 -0.866258
vn 0.009446 -0.000926 -0.999955
vn 0.861255 0.000789 -0.508172
vn 0.861265 -0.000925 -0.508156
vn 0.023817 0.407937 -0.912699
vn 0.009667 0.209424 -0.977777
vn -0.009681 0.209191 -0.977827
vn -0.023902 0.407952 -0.912690
vn -0.009462 0.000789 -0.999955
vn 0.778462 0.407952 -0.477046
vn 0.445285 0.456126 -0.770500
vn 0.438265 0.484153 -0.757311
vn 0.780254 0.433930 -0.450453
vn 0.000023 0.433930 -0.900947
vn 0.841983 0.209190 -0.497298
vn 0.851614 0.209423 -0.480517
vn 0.870700 0.000791 -0.491814
vn 0.802329 0.407937 -0.435724
vn -0.861274 0.000791 -0.508141
vn -0.500923 0.000882 -0.865491
vn -0.500404 -0.001082 -0.865791
vn -0.861264 -0.000926 -0.508158
vn -0.009443 -0.000925 -0.999955
vn -0.778512 0.407937 -0.476976
vn -0.841947 0.209423 -0.497260
vn -0.851664 0.209190 -0.480529
vn -0.802364 0.407952 -0.435645
vn -0.870717 0.000789 -0.491783
vn -0.444629 0.456126 -0.770878
vn -0.436717 0.484154 -0.758204
vn -0.780231 0.433930 -0.450493
vn -0.870700 0.000791 0.491814
vn -0.999999 0.000882 0.001065
vn -0.999999 -0.001082 0.000466
vn -0.870709 -0.000926 0.491797
vn -0.870708 -0.000925 -0.491799
vn -0.802329 0.407937 0.435724
vn -0.851613 0.209423 0.480517
vn -0.841982 0.209190 0.497298
vn -0.778462 0.407952 0.477045
vn -0.861256 0.000789 0.508171
vn -0.889915 0.456126 -0.000378
vn -0.874983 0.484153 -0.000893
vn -0.780254 0.433930 0.450453
vn -0.009426 0.000791 0.999955
vn -0.499077 0.000882 0.866557
vn -0.499596 -0.001082 0.866258
vn -0.009446 -0.000926 0.999955
vn -0.861265 -0.000925 0.508156
vn -0.023817 0.407937 0.912699
vn -0.009667 0.209423 0.977777
vn 0.009682 0.209190 0.977827
vn 0.023903 0.407952 0.912690
vn 0.009462 0.000789 0.999955
vn -0.445285 0.456126 0.770500
vn -0.438265 0.484153 0.757311
vn -0.000023 0.433930 0.900947
vn 0.861274 0.000791 0.508141
vn 0.500922 0.000882 0.865492
vn 0.500403 -0.001082 0.865792
vn 0.861264 -0.000926 0.508158
vn 0.009443 -0.000925 0.999955
vn 0.778512 0.407937 0.476975
vn 0.841947 0.209422 0.497260
vn 0.851664 0.209189 0.480529
vn 0.802364 0.407952 0.435645
vn 0.870717 0.000789 0.491783
vn 0.444629 0.456127 0.770878
vn 0.436717 0.484154 0.758204
vn 0.780231 0.433930 0.450493
vn 0.999999 0.000882 -0.001065
vn 0.999999 -0.001082 -0.000466
vn 0.870709 -0.000926 -0.491797
vn 0.870708 -0.000925 0.491799
vn 0.889915 0.456126 0.000378
vn 0.874983 0.484153 0.000893
vn 0.770225 -0.481756 -0.417929
vn 0.845497 -0.533981 -0.000010
vn 0.827936 -0.560823 0.000000
vn 0.746232 -0.507461 -0.430837
vn 0.770229 -0.481745 0.417935
vn 0.746232 -0.507461 0.430838
vn 0.844068 -0.246844 -0.476044
vn 0.834367 -0.246552 -0.492995
vn 0.747056 -0.481745 -0.458070
vn 0.844130 -0.246554 0.476083
vn 0.834301 -0.246846 0.492960
vn 0.747049 -0.481757 0.458070
vn 0.023176 -0.481756 -0.875999
vn 0.422740 -0.533981 -0.732227
vn 0.413968 -0.560823 -0.717013
vn 0.000000 -0.507461 -0.861675
vn 0.009768 -0.246846 -0.969006
vn -0.009762 -0.246554 -0.969080
vn -0.023172 -0.481745 -0.876005
vn 0.422757 -0.533981 0.732216
vn 0.413968 -0.560824 0.717013
vn 0.023172 -0.481745 0.876005
vn -0.000000 -0.507461 0.861675
vn 0.009762 -0.246554 0.969080
vn -0.009768 -0.246846 0.969006
vn -0.023176 -0.481756 0.875999
vn -0.422740 -0.533981 0.732226
vn -0.413968 -0.560823 0.717013
vn -0.747057 -0.481745 0.458070
vn -0.746232 -0.507461 0.430837
vn -0.834368 -0.246553 0.492992
vn -0.844069 -0.246845 0.476041
vn -0.770225 -0.481757 0.417928
vn -0.845497 -0.533980 0.000010
vn -0.827936 -0.560823 -0.000000
vn -0.770229 -0.481745 -0.417935
vn -0.746232 -0.507461 -0.430837
vn -0.844129 -0.246554 -0.476086
vn -0.834299 -0.246846 -0.492962
vn -0.747049 -0.481757 -0.458070
vn -0.422757 -0.533981 -0.732216
vn -0.413968 -0.560823 -0.717013
vn 0.486792 0.239428 -0.840064
vn -0.484121 0.239428 -0.841606
vn -0.970913 0.239428 -0.001543
vn -0.486794 0.239428 0.840063
vn 0.484120 0.239428 0.841606
vn 0.970913 0.239428 0.001543
vn 0.528983 0.791781 0.305385
vn 0.528964 0.791780 -0.305420
vn -0.000019 0.791781 -0.610805
vn -0.528983 0.791780 -0.305388
vn -0.528964 0.791780 0.305420
vn 0.000019 0.791781 0.610805
vn 0.958668 -0.284523 -0.001596
vn 0.477953 -0.284523 -0.831028
vn 0.480719 -0.284525 0.829431
vn -0.477952 -0.284523 0.831028
vn -0.958668 -0.284523 0.001596
vn -0.480719 -0.284524 -0.829431
vn -0.493489 -0.821753 -0.284940
vn 0.000000 -0.821759 -0.569836
vn 0.493493 -0.821760 -0.284915
vn 0.493493 -0.821760 0.284915
vn -0.000000 -0.821759 0.569836
vn -0.493490 -0.821755 0.284933
s 1
g crystal
usemtl initialShadingGroup
f 2/1/1 1/61/2 73/116/3 72/52/4
f 1/61/2 8/49/5 74/24/6 73/116/3
f 4/2/7 3/62/8 15/73/9 14/44/10
f 3/63/8 2/1/1 16/4/11 15/72/9
f 6/3/12 5/64/13 51/100/14 50/23/15
f 5/65/13 4/2/7 52/6/16 51/99/14
f 8/49/5 7/66/17 43/94/18 42/50/19
f 7/67/17 6/3/12 44/22/20 43/93/18
f 10/5/21 9/68/22 105/144/23 104/40/24
f 9/68/22 16/4/11 106/30/25 105/144/23
f 12/7/26 11/69/27 23/79/28 22/45/29
f 11/70/27 10/5/21 24/8/30 23/78/28
f 14/44/10 13/71/31 53/101/32 52/6/16
f 13/71/31 12/7/26 54/10/33 53/101/32
f 18/9/34 17/74/35 97/137/36 96/37/37
f 17/74/35 24/8/30 98/39/38 97/137/36
f 20/11/39 19/75/40 31/85/41 30/46/42
f 19/76/40 18/9/34 32/12/43 31/84/41
f 22/45/29 21/77/44 55/102/45 54/10/33
f 21/77/44 20/11/39 56/14/46 55/102/45
f 26/13/47 25/80/48 89/130/49 88/34/50
f 25/80/48 32/12/43 90/36/51 89/130/49
f 28/15/52 27/81/53 39/91/54 38/47/55
f 27/82/53 26/13/47 40/16/56 39/90/54
f 30/46/42 29/83/57 57/103/58 56/14/46
f 29/83/57 28/15/52 58/18/59 57/103/58
f 34/17/60 33/86/61 81/123/62 80/27/63
f 33/86/61 40/16/56 82/33/64 81/123/62
f 36/19/65 35/87/66 47/97/67 46/48/68
f 35/88/66 34/17/60 48/20/69 47/96/67
f 38/47/55 37/89/70 59/104/71 58/18/59
f 37/89/70 36/19/65 60/21/72 59/104/71
f 42/50/19 41/92/73 65/109/74 64/51/75
f 41/92/73 48/20/69 66/26/76 65/109/74
f 46/48/68 45/95/77 49/98/78 60/21/72
f 45/95/77 44/22/20 50/23/15 49/98/78
f 62/25/79 61/105/80 113/152/81 112/29/82
f 61/106/80 68/53/83 114/32/84 113/151/81
f 64/51/75 63/107/85 75/118/86 74/24/6
f 63/108/85 62/25/79 76/28/87 75/117/86
f 68/53/83 67/110/88 79/122/89 78/54/90
f 67/111/88 66/26/76 80/27/63 79/121/89
f 70/31/91 69/112/92 111/150/93 110/43/94
f 69/113/92 76/28/87 112/29/82 111/149/93
f 72/52/4 71/114/95 107/146/96 106/30/25
f 71/115/95 70/31/91 108/42/97 107/145/96
f 78/54/90 77/119/98 115/154/99 114/32/84
f 77/120/98 84/55/100 116/35/101 115/153/99
f 84/55/100 83/124/102 87/129/103 86/56/104
f 83/125/102 82/33/64 88/34/50 87/128/103
f 86/56/104 85/126/105 117/156/106 116/35/101
f 85/127/105 92/57/107 118/38/108 117/155/106
f 92/57/107 91/131/109 95/136/110 94/58/111
f 91/132/109 90/36/51 96/37/37 95/135/110
f 94/58/111 93/133/112 119/158/113 118/38/108
f 93/134/112 100/59/114 120/41/115 119/157/113
f 100/59/114 99/138/116 103/143/117 102/60/118
f 99/139/116 98/39/38 104/40/24 103/142/117
f 102/60/118 101/140/119 109/148/120 120/41/115
f 101/141/119 108/42/97 110/43/94 109/147/120
f 4/2/7 14/44/10 52/6/16
f 12/7/26 22/45/29 54/10/33
f 20/11/39 30/46/42 56/14/46
f 28/15/52 38/47/55 58/18/59
f 36/19/65 46/48/68 60/21/72
f 44/22/20 6/3/12 50/23/15
f 8/49/5 42/50/19 64/51/75 74/24/6
f 48/20/69 34/17/60 80/27/63 66/26/76
f 40/16/56 26/13/47 88/34/50 82/33/64
f 32/12/43 18/9/34 96/37/37 90/36/51
f 24/8/30 10/5/21 104/40/24 98/39/38
f 16/4/11 2/1/1 72/52/4 106/30/25
f 76/28/87 62/25/79 112/29/82
f 68/53/83 78/54/90 114/32/84
f 84/55/100 86/56/104 116/35/101
f 92/57/107 94/58/111 118/38/108
f 100/59/114 102/60/118 120/41/115
f 108/42/97 70/31/91 110/43/94
f 7/66/17 8/49/5 1/61/2 121/161/121
f 1/61/2 2/1/1 3/63/8 121/161/121
f 3/62/8 4/2/7 5/65/13 121/159/121
f 5/64/13 6/3/12 7/67/17 121/160/121
f 15/72/9 16/4/11 9/68/22 122/163/122
f 9/68/22 10/5/21 11/70/27 122/163/122
f 11/69/27 12/7/26 13/71/31 122/162/122
f 13/71/31 14/44/10 15/73/9 122/162/122
f 23/78/28 24/8/30 17/74/35 123/165/123
f 17/74/35 18/9/34 19/76/40 123/165/123
f 19/75/40 20/11/39 21/77/44 123/164/123
f 21/77/44 22/45/29 23/79/28 123/164/123
f 31/84/41 32/12/43 25/80/48 124/167/124
f 25/80/48 26/13/47 27/82/53 124/167/124
f 27/81/53 28/15/52 29/83/57 124/166/124
f 29/83/57 30/46/42 31/85/41 124/166/124
f 39/90/54 40/16/56 33/86/61 125/169/125
f 33/86/61 34/17/60 35/88/66 125/169/125
f 35/87/66 36/19/65 37/89/70 125/168/125
f 37/89/70 38/47/55 39/91/54 125/168/125
f 47/96/67 48/20/69 41/92/73 126/171/126
f 41/92/73 42/50/19 43/94/18 126/171/126
f 43/93/18 44/22/20 45/95/77 126/170/126
f 45/95/77 46/48/68 47/97/67 126/170/126
f 59/104/71 60/21/72 49/98/78 127/172/127
f 49/98/78 50/23/15 51/100/14 127/172/128
f 51/99/14 52/6/16 53/101/32 127/172/129
f 53/101/32 54/10/33 55/102/45 127/172/130
f 55/102/45 56/14/46 57/103/58 127/172/131
f 57/103/58 58/18/59 59/104/71 127/172/132
f 67/110/88 68/53/83 61/106/80 128/174/133
f 61/105/80 62/25/79 63/108/85 128/175/133
f 63/107/85 64/51/75 65/109/74 128/173/133
f 65/109/74 66/26/76 67/111/88 128/173/133
f 75/117/86 76/28/87 69/113/92 129/177/134
f 69/112/92 70/31/91 71/115/95 129/178/134
f 71/114/95 72/52/4 73/116/3 129/176/134
f 73/116/3 74/24/6 75/118/86 129/176/134
f 83/124/102 84/55/100 77/120/98 130/180/135
f 77/119/98 78/54/90 79/122/89 130/181/135
f 79/121/89 80/27/63 81/123/62 130/179/135
f 81/123/62 82/33/64 83/125/102 130/179/135
f 91/131/109 92/57/107 85/127/105 131/183/136
f 85/126/105 86/56/104 87/129/103 131/184/136
f 87/128/103 88/34/50 89/130/49 131/182/136
f 89/130/49 90/36/51 91/132/109 131/182/136
f 99/138/116 100/59/114 93/134/112 132/186/137
f 93/133/112 94/58/111 95/136/110 132/187/137
f 95/135/110 96/37/37 97/137/36 132/185/137
f 97/137/36 98/39/38 99/139/116 132/185/137
f 107/145/96 108/42/97 101/141/119 133/189/138
f 101/140/119 102/60/118 103/143/117 133/190/138
f 103/142/117 104/40/24 105/144/23 133/188/138
f 105/144/23 106/30/25 107/146/96 133/188/138
f 119/157/113 120/41/115 109/148/120 134/193/139
f 109/147/120 110/43/94 111/150/93 134/194/140
f 111/149/93 112/29/82 113/152/81 134/195/141
f 113/151/81 114/32/84 115/154/99 134/196/142
f 115/153/99 116/35/101 117/156/106 134/191/143
f 117/155/106 118/38/108 119/158/113 134/192/144
