# This file uses centimeters as units for non-parametric coordinates.

mtllib fern.mtl
g default
v -0.257051 0.506524 -0.620540
v -0.227585 0.670313 -0.531275
v -0.057789 0.453409 -0.004385
v -0.267227 0.640332 -0.707997
v -0.120193 0.561723 -0.193681
v -0.127062 0.427053 -0.208776
v -0.168663 0.541550 -0.337376
v -0.240328 0.670780 0.541803
v -0.240519 0.502930 0.554873
v -0.057789 0.453409 -0.004385
v -0.267109 0.601177 0.684417
v -0.130490 0.442986 0.214699
v -0.111208 0.566574 0.152013
v -0.168370 0.524187 0.325588
v -0.277967 0.758126 -0.798682
v -0.261860 0.965183 -0.685720
v -0.057789 0.670288 -0.016675
v -0.290847 0.933348 -0.909155
v -0.136765 0.814197 -0.258956
v -0.145459 0.640986 -0.273411
v -0.196379 0.793495 -0.440639
v -0.268516 0.923356 0.670816
v -0.268614 0.714727 0.687492
v -0.057789 0.670288 -0.016675
v -0.290831 0.831657 0.851175
v -0.150152 0.651799 0.260996
v -0.125749 0.808109 0.178105
v -0.196339 0.748929 0.397578
v -0.281218 1.042459 -0.840701
v -0.264585 1.263249 -0.702037
v -0.057789 0.928126 -0.034032
v -0.294517 1.237286 -0.936733
v -0.139340 1.085603 -0.276876
v -0.148317 0.905641 -0.298864
v -0.200686 1.069527 -0.467181
v -0.271475 1.159296 0.696670
v -0.271577 0.952461 0.692333
v -0.057789 0.928126 -0.034032
v -0.294517 1.061115 0.873703
v -0.153207 0.900702 0.252398
v -0.128009 1.063993 0.174807
v -0.200686 0.996105 0.395682
v -0.265899 1.292395 -0.711004
v -0.245928 1.473320 -0.592918
v -0.057789 1.167489 -0.032906
v -0.277219 1.458965 -0.791843
v -0.127203 1.310021 -0.232347
v -0.134844 1.156169 -0.260847
v -0.180387 1.302746 -0.393632
v -0.257531 1.343957 0.593181
v -0.257617 1.164119 0.588946
v -0.057789 1.167489 -0.032906
v -0.277143 1.253340 0.743101
v -0.138807 1.135095 0.209045
v -0.117359 1.277031 0.150528
v -0.180201 1.211563 0.337696
v -0.261794 1.512447 -0.669442
v -0.237419 1.678370 -0.543288
v -0.057789 1.370698 -0.025578
v -0.272584 1.671911 -0.738008
v -0.123951 1.513258 -0.214947
v -0.131234 1.367617 -0.242002
v -0.174949 1.511665 -0.368096
v -0.251004 1.519181 0.587187
v -0.251207 1.346837 0.564898
v -0.057789 1.370698 -0.025578
v -0.272488 1.427652 0.717154
v -0.134949 1.331624 0.204147
v -0.114506 1.469241 0.148625
v -0.174712 1.400518 0.326337
v -0.078989 2.452793 0.145332
v -0.078252 2.394245 0.260735
v -0.058987 2.123429 0.123331
v -0.060287 2.491446 0.233510
v -0.073777 2.219744 0.196606
v -0.073712 2.233834 0.098424
v -0.060287 2.298019 0.177702
v -0.129266 2.267191 0.380986
v -0.129345 2.114743 0.337173
v -0.058279 2.119666 0.112947
v -0.147292 2.193511 0.415143
v -0.084621 2.091903 0.193049
v -0.077157 2.204398 0.202571
v -0.099512 2.153035 0.256491
v -0.138808 2.218462 -0.106172
v -0.125796 2.344957 -0.029728
v -0.058279 2.119666 0.112947
v -0.149213 2.334028 -0.104892
v -0.082434 2.228289 0.070002
v -0.085093 2.114294 0.028959
v -0.101433 2.223253 0.010128
v -0.165225 2.129542 0.452968
v -0.165336 1.938954 0.398203
v -0.058111 1.952539 0.069909
v -0.190428 2.034902 0.508384
v -0.098929 1.914712 0.191273
v -0.087783 2.058122 0.193019
v -0.121169 1.990753 0.276204
v -0.177182 2.088376 -0.265080
v -0.158943 2.247122 -0.159826
v -0.058111 1.952539 0.069909
v -0.191729 2.236325 -0.270449
v -0.094185 2.094052 -0.004827
v -0.098156 1.946980 -0.052072
v -0.122559 2.090071 -0.093194
v -0.198199 1.929538 0.503411
v -0.198345 1.734956 0.462126
v -0.057949 1.757407 0.030218
v -0.231473 1.828982 0.588376
v -0.112799 1.715355 0.192015
v -0.098083 1.865825 0.178640
v -0.142161 1.792211 0.296461
v -0.213087 1.907402 -0.417934
v -0.189069 2.083621 -0.304371
v -0.057949 1.757407 0.030219
v -0.232292 2.074458 -0.445568
v -0.105576 1.909876 -0.082090
v -0.110818 1.754137 -0.129935
v -0.143036 1.907242 -0.195652
v -0.248276 1.720928 -0.569537
v -0.218547 1.881710 -0.440799
v -0.057789 1.570855 -0.007716
v -0.262305 1.877419 -0.614053
v -0.116739 1.714121 -0.156022
v -0.123228 1.571871 -0.204837
v -0.162887 1.714917 -0.295699
v -0.065233 2.187240 0.160951
v -0.065233 1.917138 0.090089
v -0.065233 1.641804 0.033378
v -0.065233 1.364647 0.000058
v -0.065233 1.085671 -0.009911
v -0.065233 0.808508 -0.000120
v -0.065233 0.532161 0.018567
v -0.065233 0.000000 0.029052
v -0.066570 2.199714 0.110544
v -0.066570 1.928332 0.039399
v -0.066570 1.650793 -0.017739
v -0.066570 1.371272 -0.051410
v -0.066570 1.089771 -0.061653
v -0.066570 0.810702 -0.051987
v -0.066570 0.532727 -0.033359
v -0.066570 0.000000 -0.022882
v -0.065233 0.000000 0.029052
v -0.066570 0.000000 -0.022882
v -0.230516 1.712298 0.561138
v -0.230696 1.538105 0.525667
v -0.057789 1.570855 -0.007716
v -0.262164 1.618562 0.674476
v -0.126392 1.528143 0.194400
v -0.108177 1.665809 0.167856
v -0.162540 1.595078 0.317829
vt 0.000000 0.250000
vt 0.866025 0.250000
vt 0.433013 1.000000
vt 0.433013 0.000000
vt 0.866025 0.750000
vt 0.000000 0.750000
vt 0.433013 0.500000
vt 0.000000 0.750000
vt 0.000000 0.250000
vt 0.433013 0.000000
vt 0.433013 0.500000
vt 0.866025 0.250000
vt 0.866025 0.750000
vt 0.433013 1.000000
vt 0.000000 0.750000
vt 0.000000 0.250000
vt 0.433013 0.000000
vt 0.433013 0.500000
vt 0.866025 0.250000
vt 0.866025 0.750000
vt 0.433013 1.000000
vt 0.000000 0.750000
vt 0.000000 0.250000
vt 0.433013 0.000000
vt 0.433013 0.500000
vt 0.866025 0.250000
vt 0.866025 0.750000
vt 0.433013 1.000000
vt 0.000000 0.750000
vt 0.000000 0.250000
vt 0.433013 0.000000
vt 0.433013 0.500000
vt 0.866025 0.250000
vt 0.866025 0.750000
vt 0.433013 1.000000
vt 0.000000 0.750000
vt 0.000000 0.250000
vt 0.433013 0.000000
vt 0.433013 0.500000
vt 0.866025 0.250000
vt 0.866025 0.750000
vt 0.433013 1.000000
vt 0.000000 0.750000
vt 0.000000 0.250000
vt 0.433013 0.000000
vt 0.433013 0.500000
vt 0.866025 0.250000
vt 0.866025 0.750000
vt 0.433013 1.000000
vt 0.000000 0.750000
vt 0.000000 0.250000
vt 0.433013 0.000000
vt 0.433013 0.500000
vt 0.866025 0.250000
vt 0.866025 0.750000
vt 0.433013 1.000000
vt 0.000000 0.750000
vt 0.000000 0.250000
vt 0.433013 0.000000
vt 0.433013 0.500000
vt 0.866025 0.250000
vt 0.866025 0.750000
vt 0.433013 1.000000
vt 0.000000 0.750000
vt 0.000000 0.250000
vt 0.433013 0.000000
vt 0.433013 0.500000
vt 0.866025 0.250000
vt 0.866025 0.750000
vt 0.433013 1.000000
vt 0.000000 0.750000
vt 0.000000 0.250000
vt 0.433013 0.000000
vt 0.433013 0.500000
vt 0.866025 0.250000
vt 0.866025 0.750000
vt 0.433013 1.000000
vt 0.000000 0.750000
vt 0.000000 0.250000
vt 0.433013 0.000000
vt 0.433013 0.500000
vt 0.866025 0.250000
vt 0.866025 0.750000
vt 0.433013 1.000000
vt 0.000000 0.750000
vt 0.000000 0.250000
vt 0.433013 0.000000
vt 0.433013 0.500000
vt 0.866025 0.250000
vt 0.866025 0.750000
vt 0.433013 1.000000
vt 0.000000 0.750000
vt 0.000000 0.250000
vt 0.433013 0.000000
vt 0.433013 0.500000
vt 0.866025 0.250000
vt 0.866025 0.750000
vt 0.433013 1.000000
vt 0.000000 0.750000
vt 0.000000 0.250000
vt 0.433013 0.000000
vt 0.433013 0.500000
vt 0.866025 0.250000
vt 0.866025 0.750000
vt 0.433013 1.000000
vt 0.000000 0.750000
vt 0.000000 0.250000
vt 0.433013 0.000000
vt 0.433013 0.500000
vt 0.866025 0.250000
vt 0.866025 0.750000
vt 0.433013 1.000000
vt 0.000000 0.750000
vt 0.000000 0.250000
vt 0.433013 0.000000
vt 0.433013 0.500000
vt 0.866025 0.250000
vt 0.866025 0.750000
vt 0.433013 1.000000
vt 0.000000 0.750000
vt 0.000000 0.250000
vt 0.433013 0.000000
vt 0.433013 0.500000
vt 0.866025 0.250000
vt 0.866025 0.750000
vt 0.433013 1.000000
vt 0.000000 0.000000
vt 0.142857 0.000000
vt 0.142857 1.000000
vt 0.000000 1.000000
vt 0.285714 0.000000
vt 0.285714 1.000000
vt 0.428571 0.000000
vt 0.428571 1.000000
vt 0.571429 0.000000
vt 0.571429 1.000000
vt 0.714286 0.000000
vt 0.714286 1.000000
vt 0.857143 0.000000
vt 0.857143 1.000000
vt 1.000000 0.000000
vt 1.000000 1.000000
vt 0.000000 0.000000
vt 1.000000 0.000000
vt 1.000000 1.000000
vt 0.000000 1.000000
vt 0.000000 0.750000
vt 0.000000 0.250000
vt 0.433013 0.000000
vt 0.433013 0.500000
vt 0.866025 0.250000
vt 0.866025 0.750000
vt 0.433013 1.000000
vn 0.949959 -0.024027 -0.311449
vn 0.955058 -0.054388 -0.291385
vn 0.957768 -0.030833 -0.285884
vn 0.957840 -0.018499 -0.286707
vn 0.962286 0.033870 -0.269924
vn 0.950297 -0.005306 -0.311301
vn 0.947709 -0.012598 -0.318888
vn 0.951660 0.024166 0.306202
vn 0.958911 0.062551 0.276726
vn 0.958788 0.027266 0.282813
vn 0.957520 0.015944 0.287924
vn 0.953946 -0.052910 0.295275
vn 0.949933 0.002061 0.312446
vn 0.948876 0.011945 0.315424
vn 0.956400 -0.015244 -0.291663
vn 0.974975 0.001425 -0.222311
vn 0.974939 0.016882 -0.221830
vn 0.972704 0.018911 -0.231278
vn 0.973765 0.056860 -0.220339
vn 0.953402 -0.009046 -0.301567
vn 0.948454 -0.021216 -0.316205
vn 0.955000 0.021213 0.295846
vn 0.971011 0.030397 0.237094
vn 0.971231 0.013281 0.237769
vn 0.969115 0.009540 0.246425
vn 0.970688 -0.025102 0.239030
vn 0.953032 0.011658 0.302646
vn 0.949245 0.018322 0.314004
vn 0.957625 -0.000258 -0.288018
vn 0.976956 0.022425 -0.212259
vn 0.976467 0.032955 -0.213135
vn 0.974101 0.032923 -0.223705
vn 0.974672 0.060465 -0.215312
vn 0.954199 0.002983 -0.299156
vn 0.948768 -0.008738 -0.315853
vn 0.955130 0.001270 0.296184
vn 0.972764 -0.005440 0.231734
vn 0.972930 -0.011972 0.230791
vn 0.970655 -0.012203 0.240166
vn 0.973155 -0.027681 0.228482
vn 0.953215 -0.001372 0.302289
vn 0.949059 0.003263 0.315083
vn 0.953326 0.007919 -0.301839
vn 0.965581 -0.002096 -0.260094
vn 0.967150 0.025922 -0.252881
vn 0.965845 0.035514 -0.256675
vn 0.967392 0.099659 -0.232853
vn 0.952225 0.026128 -0.304279
vn 0.948084 0.011783 -0.317802
vn 0.953007 0.002910 0.302933
vn 0.963370 0.057011 0.262047
vn 0.963919 0.004687 0.266153
vn 0.962079 -0.011343 0.272534
vn 0.955269 -0.114314 0.272753
vn 0.950638 -0.028564 0.308985
vn 0.948976 -0.013510 0.315059
vn 0.951414 0.007316 -0.307829
vn 0.960877 -0.005058 -0.276930
vn 0.963164 0.025377 -0.267716
vn 0.962446 0.036809 -0.268966
vn 0.964433 0.107746 -0.241371
vn 0.951377 0.027661 -0.306785
vn 0.947604 0.011916 -0.319226
vn 0.952232 -0.003894 0.305352
vn 0.962648 0.026606 0.269446
vn 0.961980 -0.016576 0.272617
vn 0.960032 -0.029785 0.278301
vn 0.952815 -0.121462 0.278190
vn 0.950039 -0.029990 0.310686
vn 0.948570 -0.013305 0.316288
vn 0.996019 0.030173 -0.083881
vn 0.970964 0.069445 -0.228925
vn 0.970964 0.069445 -0.228925
vn 0.999946 0.005406 -0.008932
vn 0.947256 -0.088854 0.307913
vn 0.947256 -0.088854 0.307913
vn 0.997033 -0.016026 0.075295
vn 0.999975 0.006930 0.001665
vn 0.949501 -0.088507 0.301022
vn 0.947227 -0.088977 0.307969
vn 0.947224 -0.088979 0.307976
vn 0.948105 -0.088801 0.305307
vn 0.947214 -0.088989 0.308005
vn 0.950721 -0.088252 0.297222
vn 0.951787 -0.088020 0.293860
vn 0.947213 0.088790 -0.308065
vn 0.947217 0.088748 -0.308066
vn 0.947222 0.088747 -0.308049
vn 0.947220 0.088760 -0.308053
vn 0.947230 0.088745 -0.308025
vn 0.947217 0.088795 -0.308052
vn 0.947210 0.088820 -0.308065
vn 0.949341 -0.080548 0.303749
vn 0.949326 -0.084276 0.302782
vn 0.949020 -0.084818 0.303589
vn 0.948855 -0.083946 0.304346
vn 0.947954 -0.086693 0.306379
vn 0.949031 -0.079609 0.304963
vn 0.949343 -0.077495 0.304537
vn 0.948300 0.076132 -0.308107
vn 0.949848 0.078774 -0.302629
vn 0.949833 0.084034 -0.301255
vn 0.949439 0.082718 -0.302857
vn 0.949741 0.093246 -0.298827
vn 0.948067 0.079887 -0.307876
vn 0.947320 0.074489 -0.311506
vn 0.949464 -0.066712 0.306705
vn 0.950420 -0.069088 0.303199
vn 0.950686 -0.066711 0.302896
vn 0.950559 -0.065304 0.303599
vn 0.951429 -0.059787 0.302006
vn 0.949417 -0.064268 0.307372
vn 0.948915 -0.065367 0.308687
vn 0.948862 0.064881 -0.308951
vn 0.951730 0.065425 -0.299884
vn 0.951409 0.063887 -0.301228
vn 0.950785 0.063745 -0.303225
vn 0.950754 0.060796 -0.303926
vn 0.948094 0.063658 -0.311552
vn 0.947227 0.064575 -0.313992
vn 0.949666 0.055710 -0.308270
vn 0.954243 0.036919 -0.296744
vn 0.955439 0.048542 -0.291169
vn 0.954985 0.055125 -0.291486
vn 0.957844 0.079472 -0.276077
vn 0.949438 0.067164 -0.306686
vn 0.947390 0.064378 -0.313540
vn 0.999668 0.006533 -0.024910
vn 0.999669 0.005866 -0.025067
vn 0.999669 0.005855 -0.025069
vn 0.999668 0.006533 -0.024910
vn 0.999669 0.004132 -0.025406
vn 0.999669 0.004149 -0.025404
vn 0.999668 0.001972 -0.025697
vn 0.999668 0.002041 -0.025690
vn 0.999666 -0.000028 -0.025828
vn 0.999666 0.000064 -0.025825
vn 0.999666 -0.001345 -0.025824
vn 0.999666 -0.001295 -0.025827
vn 0.999668 -0.000908 -0.025758
vn 0.999668 -0.000946 -0.025760
vn 0.999669 -0.000507 -0.025739
vn 0.999669 -0.000507 -0.025739
vn 0.000000 0.000000 0.000000
vn 0.000000 0.000000 0.000000
vn 0.000000 0.000000 0.000000
vn 0.000000 0.000000 0.000000
vn 0.950859 -0.059060 0.303940
vn 0.957034 -0.040892 0.287077
vn 0.956284 -0.055249 0.287173
vn 0.955041 -0.062284 0.289859
vn 0.953362 -0.093008 0.287141
vn 0.949291 -0.069977 0.306513
vn 0.948441 -0.065706 0.310069
s 1
g fern
usemtl initialShadingGroup
f 6/6/1 1/1/2 4/4/3 7/7/4
f 4/4/3 2/2/5 5/5/6 7/7/4
f 5/5/6 3/3/7 6/6/1 7/7/4
s 2
f 13/8/8 8/9/9 11/10/10 14/11/11
f 11/10/10 9/12/12 12/13/13 14/11/11
f 12/13/13 10/14/14 13/8/8 14/11/11
s 3
f 20/15/15 15/16/16 18/17/17 21/18/18
f 18/17/17 16/19/19 19/20/20 21/18/18
f 19/20/20 17/21/21 20/15/15 21/18/18
s 4
f 27/22/22 22/23/23 25/24/24 28/25/25
f 25/24/24 23/26/26 26/27/27 28/25/25
f 26/27/27 24/28/28 27/22/22 28/25/25
s 5
f 34/29/29 29/30/30 32/31/31 35/32/32
f 32/31/31 30/33/33 33/34/34 35/32/32
f 33/34/34 31/35/35 34/29/29 35/32/32
s 6
f 41/36/36 36/37/37 39/38/38 42/39/39
f 39/38/38 37/40/40 40/41/41 42/39/39
f 40/41/41 38/42/42 41/36/36 42/39/39
s 7
f 48/43/43 43/44/44 46/45/45 49/46/46
f 46/45/45 44/47/47 47/48/48 49/46/46
f 47/48/48 45/49/49 48/43/43 49/46/46
s 8
f 55/50/50 50/51/51 53/52/52 56/53/53
f 53/52/52 51/54/54 54/55/55 56/53/53
f 54/55/55 52/56/56 55/50/50 56/53/53
s 9
f 62/57/57 57/58/58 60/59/59 63/60/60
f 60/59/59 58/61/61 61/62/62 63/60/60
f 61/62/62 59/63/63 62/57/57 63/60/60
s 10
f 69/64/64 64/65/65 67/66/66 70/67/67
f 67/66/66 65/68/68 68/69/69 70/67/67
f 68/69/69 66/70/70 69/64/64 70/67/67
s 11
f 76/71/71 71/72/72 74/73/73 77/74/74
f 74/73/75 72/75/76 75/76/77 77/74/74
f 75/76/77 73/77/78 76/71/71 77/74/74
s 12
f 83/78/79 78/79/80 81/80/81 84/81/82
f 81/80/81 79/82/83 82/83/84 84/81/82
f 82/83/84 80/84/85 83/78/79 84/81/82
s 13
f 90/85/86 85/86/87 88/87/88 91/88/89
f 88/87/88 86/89/90 89/90/91 91/88/89
f 89/90/91 87/91/92 90/85/86 91/88/89
s 14
f 97/92/93 92/93/94 95/94/95 98/95/96
f 95/94/95 93/96/97 96/97/98 98/95/96
f 96/97/98 94/98/99 97/92/93 98/95/96
s 15
f 104/99/100 99/100/101 102/101/102 105/102/103
f 102/101/102 100/103/104 103/104/105 105/102/103
f 103/104/105 101/105/106 104/99/100 105/102/103
s 16
f 111/106/107 106/107/108 109/108/109 112/109/110
f 109/108/109 107/110/111 110/111/112 112/109/110
f 110/111/112 108/112/113 111/106/107 112/109/110
s 17
f 118/113/114 113/114/115 116/115/116 119/116/117
f 116/115/116 114/117/118 117/118/119 119/116/117
f 117/118/119 115/119/120 118/113/114 119/116/117
s 18
f 125/120/121 120/121/122 123/122/123 126/123/124
f 123/122/123 121/124/125 124/125/126 126/123/124
f 124/125/126 122/126/127 125/120/121 126/123/124
s 19
f 127/127/128 128/128/129 136/129/130 135/130/131
f 128/128/129 129/131/132 137/132/133 136/129/130
f 129/131/132 130/133/134 138/134/135 137/132/133
f 130/133/134 131/135/136 139/136/137 138/134/135
f 131/135/136 132/137/138 140/138/139 139/136/137
f 132/137/138 133/139/140 141/140/141 140/138/139
f 133/139/140 134/141/142 142/142/143 141/140/141
s off
f 142/143/144 134/144/145 143/145/146 144/146/147
s 20
f 150/147/148 145/148/149 148/149/150 151/150/151
f 148/149/150 146/151/152 149/152/153 151/150/151
f 149/152/153 147/153/154 150/147/148 151/150/151
