# This file uses centimeters as units for non-parametric coordinates.

mtllib shroom02.mtl
g default
v 0.280304 3.232306 -0.351729
v 0.000001 3.117769 -0.388061
v -0.269300 3.137739 -0.277244
v -0.385660 3.122852 0.000953
v -0.275548 3.120157 0.273625
v -0.022837 3.141431 0.448863
v 0.236136 3.174706 0.367310
v 0.402972 3.173247 -0.076854
v -0.000000 1.898416 -0.000001
v 0.523166 2.302932 0.514407
v 0.005688 2.345471 0.721236
v -0.516471 2.456581 0.516470
v -0.730400 2.456581 -0.000001
v -0.516471 2.456581 -0.516471
v 0.005552 2.343642 -0.737624
v 0.524929 2.320416 -0.541505
v 0.737786 2.263731 0.006844
v 0.093142 3.638865 -0.080207
v -0.017754 3.662810 -0.140262
v -0.096183 3.622815 -0.160182
v -0.174643 3.624200 -0.045500
v -0.114810 3.701613 0.039516
v 0.009292 3.725331 0.129542
v 0.125185 3.627331 0.155496
v 0.181827 3.595465 0.005985
v 0.528944 1.999492 -0.534070
v 0.513891 1.948279 -0.517386
v 0.475767 1.925557 -0.478934
v 0.001477 2.008636 -0.746361
v 0.000846 1.957036 -0.725334
v 0.000549 1.933466 -0.671524
v -0.526821 2.020841 -0.526822
v -0.512303 1.969007 -0.512294
v -0.474470 1.944648 -0.474435
v -0.745043 2.020690 -0.000001
v -0.724504 1.968963 -0.000001
v -0.670989 1.944648 -0.000001
v -0.526800 2.021745 0.526800
v -0.511826 1.969224 0.511826
v -0.472849 1.944491 0.472849
v 0.003691 1.958974 0.738748
v 0.003318 1.907556 0.717606
v 0.002957 1.886661 0.662950
v 0.528840 1.985630 0.525441
v 0.513369 1.933299 0.510914
v 0.474385 1.910661 0.472456
v 0.745872 1.972222 0.013588
v 0.724300 1.920789 0.014308
v 0.669816 1.899256 0.013680
vt 0.375000 0.688440
vt 0.406250 0.688440
vt 0.437500 0.688440
vt 0.468750 0.688440
vt 0.500000 0.688440
vt 0.531250 0.688440
vt 0.562500 0.688440
vt 0.593750 0.688440
vt 0.625000 0.688440
vt 0.610485 0.733265
vt 0.500000 0.687500
vt 0.389515 0.733265
vt 0.343750 0.843750
vt 0.389515 0.954235
vt 0.500000 1.000000
vt 0.610485 0.954235
vt 0.656250 0.843750
vt 0.625000 0.500470
vt 0.555243 0.895868
vt 0.500000 0.918750
vt 0.444757 0.895868
vt 0.421875 0.840625
vt 0.444757 0.785382
vt 0.500000 0.762500
vt 0.555243 0.785382
vt 0.578125 0.840625
vt 0.406250 0.345435
vt 0.375000 0.500470
vt 0.437500 0.338814
vt 0.406250 0.500470
vt 0.468750 0.338757
vt 0.437500 0.500470
vt 0.500000 0.339149
vt 0.468750 0.500470
vt 0.531250 0.342609
vt 0.500000 0.500470
vt 0.562500 0.347864
vt 0.531250 0.500470
vt 0.593750 0.350090
vt 0.562500 0.500470
vt 0.625000 0.346513
vt 0.593750 0.500470
vt 0.599211 0.056233
vt 0.500000 0.015375
vt 0.400811 0.056429
vt 0.359728 0.155611
vt 0.401150 0.254442
vt 0.500000 0.295171
vt 0.598863 0.254456
vt 0.500000 0.150000
vt 0.639938 0.155598
vt 0.375000 0.346513
vt 0.625000 0.312500
vt 0.610485 0.045765
vt 0.375000 0.312500
vt 0.500000 0.000000
vt 0.406250 0.312500
vt 0.389515 0.045765
vt 0.437500 0.312500
vt 0.343750 0.156250
vt 0.468750 0.312500
vt 0.389515 0.266735
vt 0.500000 0.312500
vt 0.500000 0.312500
vt 0.531250 0.312500
vt 0.610485 0.266735
vt 0.562500 0.312500
vt 0.656250 0.156250
vt 0.593750 0.312500
vn 0.766585 0.582099 -0.271124
vn 0.753430 0.608040 -0.250262
vn 0.582698 0.811729 -0.039495
vn 0.582698 0.811729 -0.039495
vn 0.351279 0.208200 0.912828
vn 0.354821 0.186550 0.916134
vn 0.305019 0.333448 0.892063
vn 0.314570 0.320153 0.893615
vn -0.377196 0.252315 0.891101
vn -0.374821 0.191085 0.907191
vn -0.432674 0.380827 0.817169
vn -0.428562 0.379048 0.820157
vn -0.894379 0.251923 0.369622
vn -0.894378 0.251927 0.369621
vn -0.841548 0.418936 0.341013
vn -0.842201 0.417869 0.340711
vn -0.895060 0.253436 -0.366930
vn -0.895164 0.252996 -0.366980
vn -0.838857 0.413317 -0.354243
vn -0.839176 0.409908 -0.357435
vn -0.347438 0.215532 -0.912597
vn -0.329707 0.286648 -0.899514
vn -0.287713 0.390783 -0.874363
vn -0.011853 0.380539 -0.924689
vn 0.282683 0.210545 -0.935821
vn 0.276790 0.224091 -0.934436
vn 0.186966 0.384123 -0.904153
vn 0.918719 0.198373 -0.341472
vn 0.913600 0.228082 -0.336621
vn 0.876490 0.357500 -0.322427
vn 0.885171 0.335230 -0.322633
vn 0.894231 0.277204 0.351439
vn 0.898034 0.260040 0.354842
vn 0.874772 0.354749 0.330042
vn 0.874769 0.354839 0.329952
vn -0.027773 0.452104 -0.891532
vn 0.098810 0.493008 -0.864396
vn -0.255437 0.356797 -0.898581
vn -0.841756 0.356798 -0.405145
vn -0.841756 0.356798 -0.405145
vn -0.863146 0.381928 0.330318
vn -0.863146 0.381928 0.330318
vn -0.553417 0.430272 0.713159
vn -0.553417 0.430272 0.713159
vn 0.207341 0.458566 0.864134
vn 0.207341 0.458566 0.864134
vn 0.873614 0.376992 0.307693
vn 0.873614 0.376992 0.307693
vn -0.424954 0.827802 -0.366276
vn -0.424954 0.827802 -0.366276
vn -0.424954 0.827802 -0.366276
vn -0.424954 0.827802 -0.366276
vn 0.152670 0.959292 -0.237596
vn 0.152670 0.959291 -0.237596
vn 0.152670 0.959291 -0.237596
vn 0.152670 0.959291 -0.237596
vn 0.363704 -0.051255 -0.930103
vn 0.363719 -0.048467 -0.930247
vn -0.384615 -0.015740 -0.922943
vn -0.384579 -0.012755 -0.923004
vn -0.923840 -0.008955 -0.382675
vn -0.923840 -0.008992 -0.382675
vn -0.923797 -0.009711 0.382760
vn -0.923800 -0.009399 0.382761
vn -0.366828 0.001433 0.930288
vn -0.368787 -0.016265 0.929372
vn 0.376626 -0.015730 0.926232
vn 0.376260 -0.006381 0.926492
vn 0.920623 -0.022642 0.389794
vn 0.920510 -0.026076 0.389849
vn 0.928847 -0.050015 -0.367071
vn 0.929534 -0.038938 -0.366676
vn -0.020259 -0.998435 -0.052131
vn 0.003428 -0.998579 -0.053184
vn -0.030921 -0.999287 -0.021673
vn -0.056924 -0.997566 -0.040281
vn -0.068739 -0.997635 -0.000098
vn -0.091010 -0.995832 0.006025
vn -0.035598 -0.999212 -0.017558
vn 0.022095 -0.999749 0.003726
vn 0.001570 -0.999879 -0.015447
vn 0.342572 -0.369141 -0.863933
vn 0.342572 -0.369141 -0.863933
vn 0.252950 -0.920645 -0.297371
vn 0.258293 -0.920800 -0.292254
vn -0.019685 -0.916152 -0.400346
vn -0.021939 -0.916102 -0.400345
vn -0.366726 -0.346085 -0.863561
vn -0.366726 -0.346085 -0.863561
vn -0.299658 -0.910113 -0.286182
vn -0.301160 -0.910094 -0.284661
vn -0.867449 -0.344062 -0.359380
vn -0.867449 -0.344062 -0.359380
vn -0.412525 -0.910946 0.001279
vn -0.412526 -0.910945 0.001085
vn -0.866193 -0.346758 0.359818
vn -0.866193 -0.346758 0.359818
vn -0.325235 -0.909357 0.259405
vn -0.331520 -0.908994 0.252633
vn -0.383119 -0.350739 0.854519
vn -0.383119 -0.350739 0.854519
vn -0.245620 -0.907443 0.340909
vn -0.245620 -0.907443 0.340909
vn 0.367131 -0.352062 0.860969
vn 0.367131 -0.352062 0.860969
vn 0.188015 -0.917819 0.349654
vn 0.188015 -0.917819 0.349654
vn 0.274068 -0.924040 0.266527
vn 0.276794 -0.924020 0.263766
vn 0.857059 -0.355571 0.372852
vn 0.857059 -0.355571 0.372852
vn 0.359530 -0.916412 0.175861
vn 0.359530 -0.916412 0.175861
vn 0.359144 -0.913779 -0.189797
vn 0.359144 -0.913779 -0.189797
vn 0.858360 -0.367043 -0.358464
vn 0.858360 -0.367043 -0.358464
s 1
g top_shroom02
usemtl lambert2SG
f 25/26/1 18/19/2 23/24/3 24/25/4
s 2
f 11/38/5 10/40/6 7/7/7 6/6/8
s 3
f 12/36/9 11/38/10 6/6/11 5/5/12
s 4
f 13/34/13 12/36/14 5/5/15 4/4/16
s 5
f 14/32/17 13/34/18 4/4/19 3/3/20
s 6
f 15/30/21 14/32/22 3/3/23 2/2/24
f 16/28/25 15/30/26 2/2/24 1/1/27
s 1
f 17/42/28 16/18/29 1/9/30 8/8/31
s 9
f 10/40/32 17/42/33 8/8/34 7/7/35
s 1
f 8/17/31 1/16/30 18/19/2 25/26/1
s 6
f 1/16/27 2/15/24 19/20/36 18/19/37
f 2/15/24 3/14/23 20/21/38 19/20/36
s 5
f 3/14/20 4/13/19 21/22/39 20/21/40
s 4
f 4/13/16 5/12/15 22/23/41 21/22/42
s 3
f 5/12/12 6/11/11 23/24/43 22/23/44
s 2
f 6/11/8 7/10/7 24/25/45 23/24/46
s 9
f 7/10/35 8/17/34 25/26/47 24/25/48
s off
f 22/23/49 19/20/50 20/21/51 21/22/52
f 23/24/53 18/19/54 19/20/55 22/23/56
s 6
f 26/52/57 29/27/58 15/30/26 16/28/25
f 29/27/59 32/29/60 14/32/22 15/30/21
s 5
f 32/29/61 35/31/62 13/34/18 14/32/17
s 4
f 35/31/63 38/33/64 12/36/14 13/34/13
s 3
f 38/33/65 41/35/66 11/38/10 12/36/9
s 2
f 41/35/67 44/37/68 10/40/6 11/38/5
s 9
f 44/37/69 47/39/70 17/42/33 10/40/32
s 1
f 47/39/71 26/41/72 16/18/29 17/42/28
s 10
f 31/44/73 28/43/74 9/50/75
f 34/45/76 31/44/73 9/50/75
f 37/46/77 34/45/76 9/50/75
f 40/47/78 37/46/77 9/50/75
f 43/48/79 40/47/78 9/50/75
f 46/49/80 43/48/79 9/50/75
f 49/51/81 46/49/80 9/50/75
f 28/43/74 49/51/81 9/50/75
s 6
f 26/52/57 27/55/82 30/57/83 29/27/58
s 11
f 27/54/84 28/43/85 31/44/86 30/56/87
s 6
f 29/27/59 30/57/88 33/59/89 32/29/60
s 11
f 30/56/87 31/44/86 34/45/90 33/58/91
s 5
f 32/29/61 33/59/92 36/61/93 35/31/62
s 11
f 33/58/91 34/45/90 37/46/94 36/60/95
s 4
f 35/31/63 36/61/96 39/63/97 38/33/64
s 11
f 36/60/95 37/46/94 40/47/98 39/62/99
s 3
f 38/33/65 39/63/100 42/65/101 41/35/66
s 11
f 39/62/99 40/47/98 43/48/102 42/64/103
s 2
f 41/35/67 42/65/104 45/67/105 44/37/68
s 12
f 42/64/106 43/48/107 46/49/108 45/66/109
s 9
f 44/37/69 45/67/110 48/69/111 47/39/70
s 12
f 45/66/109 46/49/108 49/51/112 48/68/113
s 11
f 28/43/85 27/54/84 48/68/114 49/51/115
s 1
f 27/53/116 26/41/72 47/39/71 48/69/117
g default
v 0.000000 -0.000000 -0.000000
v 0.000000 1.956135 -0.000000
v 0.101250 1.611301 -0.101250
v 0.000000 1.611301 -0.143189
v -0.101250 1.611301 -0.101250
v -0.143189 1.611301 -0.000000
v -0.101250 1.611301 0.101250
v 0.000000 1.611301 0.143189
v 0.101250 1.611301 0.101250
v 0.143189 1.611301 -0.000000
v 0.125079 1.090471 -0.125079
v 0.000000 1.090471 -0.176888
v -0.125079 1.090471 -0.125079
v -0.176888 1.090471 -0.000000
v -0.125079 1.090471 0.125079
v 0.000000 1.090471 0.176888
v 0.125079 1.090471 0.125079
v 0.176888 1.090471 -0.000000
v 0.185054 0.123531 -0.185054
v 0.180233 0.098172 -0.180233
v 0.164767 0.081606 -0.164767
v 0.000000 0.123531 -0.261706
v 0.000000 0.098172 -0.254888
v 0.000000 0.081606 -0.233016
v -0.185054 0.123531 -0.185054
v -0.180233 0.098172 -0.180233
v -0.164767 0.081606 -0.164767
v -0.261706 0.123531 -0.000000
v -0.254888 0.098172 -0.000000
v -0.233015 0.081606 -0.000000
v -0.185054 0.123531 0.185055
v -0.180233 0.098172 0.180233
v -0.164767 0.081606 0.164766
v 0.000000 0.123531 0.261706
v 0.000000 0.098172 0.254888
v 0.000000 0.081606 0.233016
v 0.185054 0.123531 0.185055
v 0.180233 0.098172 0.180233
v 0.164767 0.081606 0.164766
v 0.261707 0.123531 -0.000000
v 0.254888 0.098172 -0.000000
v 0.233015 0.081606 -0.000000
v 0.076992 1.901269 -0.076992
v 0.091199 1.883540 -0.091199
v 0.096757 1.858920 -0.096757
v 0.000000 1.901269 -0.108883
v 0.000000 1.883540 -0.128975
v 0.000000 1.858920 -0.136835
v -0.076992 1.901269 -0.076992
v -0.091199 1.883540 -0.091199
v -0.096757 1.858920 -0.096757
v -0.108883 1.901269 -0.000000
v -0.128975 1.883540 -0.000000
v -0.136835 1.858920 -0.000000
v -0.076992 1.901269 0.076991
v -0.091199 1.883540 0.091199
v -0.096757 1.858920 0.096757
v 0.000000 1.901269 0.108882
v 0.000000 1.883540 0.128975
v 0.000000 1.858920 0.136834
v 0.076992 1.901269 0.076992
v 0.091199 1.883540 0.091199
v 0.096757 1.858920 0.096757
v 0.108883 1.901269 -0.000000
v 0.128975 1.883540 -0.000000
v 0.136835 1.858920 -0.000000
vt 0.375000 0.603556
vt 0.625000 0.480742
vt 0.406250 0.603556
vt 0.375000 0.679641
vt 0.437500 0.603557
vt 0.406250 0.679641
vt 0.468750 0.603556
vt 0.437500 0.679641
vt 0.500000 0.603556
vt 0.468750 0.679641
vt 0.531250 0.603556
vt 0.500000 0.679641
vt 0.562500 0.603556
vt 0.531250 0.679641
vt 0.593750 0.603556
vt 0.562500 0.679641
vt 0.625000 0.603556
vt 0.593750 0.679641
vt 0.597363 0.058144
vt 0.500000 0.017815
vt 0.402636 0.058144
vt 0.362307 0.155508
vt 0.402637 0.252871
vt 0.500000 0.293201
vt 0.597364 0.252871
vt 0.500000 0.150000
vt 0.637693 0.155508
vt 0.500000 0.967503
vt 0.411609 0.930890
vt 0.374997 0.842500
vt 0.411609 0.754110
vt 0.500000 0.717497
vt 0.588391 0.754109
vt 0.625003 0.842500
vt 0.588391 0.930890
vt 0.500000 0.837500
vt 0.406250 0.317714
vt 0.375000 0.480742
vt 0.437500 0.317714
vt 0.406250 0.480742
vt 0.468750 0.317714
vt 0.437500 0.480742
vt 0.500000 0.317714
vt 0.468750 0.480742
vt 0.531250 0.317714
vt 0.500000 0.480742
vt 0.562500 0.317714
vt 0.531250 0.480742
vt 0.593750 0.317714
vt 0.562500 0.480742
vt 0.625000 0.317714
vt 0.593750 0.480742
vt 0.375000 0.317714
vt 0.625000 0.679641
vt 0.625000 0.312500
vt 0.610485 0.045765
vt 0.375000 0.312500
vt 0.500000 0.000000
vt 0.406250 0.312500
vt 0.389515 0.045765
vt 0.437500 0.312500
vt 0.343750 0.156250
vt 0.468750 0.312500
vt 0.389515 0.266735
vt 0.500000 0.312500
vt 0.500000 0.312500
vt 0.531250 0.312500
vt 0.610485 0.266735
vt 0.562500 0.312500
vt 0.656250 0.156250
vt 0.593750 0.312500
vt 0.610485 0.954235
vt 0.625000 0.688440
vt 0.375000 0.688440
vt 0.406250 0.688440
vt 0.500000 1.000000
vt 0.437500 0.688440
vt 0.389515 0.954235
vt 0.468750 0.688440
vt 0.343750 0.843750
vt 0.500000 0.688440
vt 0.389515 0.733265
vt 0.531250 0.688440
vt 0.500000 0.687500
vt 0.562500 0.688440
vt 0.610485 0.733265
vt 0.593750 0.688440
vt 0.656250 0.843750
vn 0.381596 0.075343 -0.921254
vn 0.381596 0.075343 -0.921253
vn 0.382212 0.049663 -0.922739
vn 0.382212 0.049663 -0.922739
vn -0.381596 0.075343 -0.921253
vn -0.381596 0.075343 -0.921254
vn -0.382212 0.049663 -0.922739
vn -0.382212 0.049663 -0.922739
vn -0.921254 0.075343 -0.381596
vn -0.921254 0.075343 -0.381596
vn -0.922740 0.049663 -0.382211
vn -0.922740 0.049663 -0.382211
vn -0.921254 0.075343 0.381596
vn -0.921254 0.075343 0.381596
vn -0.922740 0.049663 0.382211
vn -0.922740 0.049663 0.382211
vn -0.381596 0.075343 0.921254
vn -0.381596 0.075343 0.921254
vn -0.382209 0.049664 0.922740
vn -0.382209 0.049664 0.922740
vn 0.381596 0.075343 0.921254
vn 0.381596 0.075343 0.921254
vn 0.382209 0.049664 0.922740
vn 0.382209 0.049664 0.922740
vn 0.921254 0.075343 0.381596
vn 0.921254 0.075343 0.381596
vn 0.922740 0.049663 0.382211
vn 0.922740 0.049663 0.382211
vn 0.921253 0.075343 -0.381596
vn 0.921253 0.075343 -0.381596
vn 0.922740 0.049663 -0.382211
vn 0.922740 0.049663 -0.382211
vn 0.382577 0.023701 -0.923620
vn 0.382577 0.023701 -0.923620
vn -0.382577 0.023701 -0.923620
vn -0.382577 0.023701 -0.923620
vn -0.923620 0.023701 -0.382576
vn -0.923620 0.023701 -0.382576
vn -0.923620 0.023700 0.382575
vn -0.923620 0.023700 0.382575
vn -0.382571 0.023701 0.923622
vn -0.382570 0.023701 0.923622
vn 0.382570 0.023701 0.923622
vn 0.382570 0.023701 0.923622
vn 0.923620 0.023701 0.382575
vn 0.923620 0.023701 0.382575
vn 0.923620 0.023701 -0.382576
vn 0.923620 0.023701 -0.382576
vn 0.000000 -0.911860 -0.410502
vn 0.290269 -0.911860 -0.290269
vn -0.000000 -1.000000 0.000000
vn -0.290269 -0.911860 -0.290269
vn -0.410502 -0.911860 -0.000000
vn -0.290269 -0.911860 0.290268
vn -0.000000 -0.911860 0.410502
vn 0.290269 -0.911860 0.290269
vn 0.410502 -0.911860 0.000000
vn 0.387473 0.836498 -0.387474
vn 0.000000 0.836497 -0.547971
vn 0.000000 1.000000 0.000000
vn -0.387473 0.836498 -0.387473
vn -0.547969 0.836498 0.000000
vn -0.387471 0.836499 0.387473
vn -0.000001 0.836499 0.547968
vn 0.387471 0.836499 0.387473
vn 0.547969 0.836498 -0.000000
vn 0.381433 0.080776 -0.920860
vn 0.381433 0.080776 -0.920860
vn -0.381433 0.080776 -0.920860
vn -0.381433 0.080776 -0.920860
vn -0.920860 0.080776 -0.381433
vn -0.920860 0.080776 -0.381433
vn -0.920861 0.080777 0.381433
vn -0.920861 0.080777 0.381433
vn -0.381433 0.080776 0.920860
vn -0.381433 0.080776 0.920860
vn 0.381433 0.080776 0.920860
vn 0.381433 0.080776 0.920860
vn 0.920861 0.080777 0.381433
vn 0.920861 0.080777 0.381433
vn 0.920860 0.080776 -0.381433
vn 0.920860 0.080776 -0.381433
vn 0.371397 -0.241074 -0.896631
vn 0.371397 -0.241074 -0.896631
vn 0.371397 -0.241074 -0.896631
vn 0.371397 -0.241074 -0.896631
vn 0.426922 -0.797167 -0.426921
vn 0.000000 -0.797165 -0.603761
vn -0.371397 -0.241074 -0.896631
vn -0.371397 -0.241074 -0.896631
vn -0.371397 -0.241074 -0.896631
vn -0.371397 -0.241074 -0.896631
vn -0.426922 -0.797167 -0.426922
vn -0.896629 -0.241081 -0.371397
vn -0.896629 -0.241081 -0.371397
vn -0.896630 -0.241081 -0.371397
vn -0.896629 -0.241081 -0.371397
vn -0.603757 -0.797168 -0.000000
vn -0.896628 -0.241086 0.371396
vn -0.896628 -0.241086 0.371396
vn -0.896628 -0.241086 0.371396
vn -0.896628 -0.241086 0.371396
vn -0.426923 -0.797167 0.426921
vn -0.371397 -0.241083 0.896629
vn -0.371397 -0.241083 0.896629
vn -0.371397 -0.241083 0.896629
vn -0.371397 -0.241083 0.896629
vn -0.000000 -0.797167 0.603759
vn 0.371397 -0.241083 0.896629
vn 0.371397 -0.241083 0.896629
vn 0.371397 -0.241083 0.896629
vn 0.371397 -0.241083 0.896629
vn 0.426923 -0.797167 0.426922
vn 0.896628 -0.241086 0.371396
vn 0.896628 -0.241086 0.371396
vn 0.896628 -0.241086 0.371396
vn 0.896628 -0.241086 0.371396
vn 0.603757 -0.797168 0.000000
vn 0.896629 -0.241081 -0.371397
vn 0.896630 -0.241081 -0.371397
vn 0.896630 -0.241081 -0.371397
vn 0.896630 -0.241081 -0.371397
vn 0.617705 0.486708 -0.617702
vn 0.000000 0.486707 -0.873565
vn 0.367050 0.282910 -0.886136
vn 0.367050 0.282910 -0.886136
vn -0.617705 0.486708 -0.617702
vn -0.367050 0.282910 -0.886136
vn -0.367050 0.282910 -0.886136
vn -0.873563 0.486710 0.000000
vn -0.886136 0.282908 -0.367049
vn -0.886136 0.282908 -0.367049
vn -0.617705 0.486712 0.617699
vn -0.886135 0.282912 0.367050
vn -0.886135 0.282912 0.367050
vn -0.000000 0.486712 0.873563
vn -0.367047 0.282906 0.886138
vn -0.367047 0.282906 0.886138
vn 0.617706 0.486711 0.617698
vn 0.367047 0.282906 0.886138
vn 0.367047 0.282906 0.886138
vn 0.873564 0.486710 -0.000000
vn 0.886135 0.282912 0.367049
vn 0.886135 0.282912 0.367049
vn 0.886136 0.282908 -0.367049
vn 0.886136 0.282908 -0.367049
s 1
g bot_shroom02
usemtl lambert3SG
f 60/107/118 61/109/119 53/72/120 52/70/121
s 2
f 61/109/122 62/111/123 54/74/124 53/72/125
s 3
f 62/111/126 63/113/127 55/76/128 54/74/129
s 4
f 63/113/130 64/115/131 56/78/132 55/76/133
s 5
f 64/115/134 65/117/135 57/80/136 56/78/137
s 6
f 65/117/138 66/119/139 58/82/140 57/80/141
s 7
f 66/119/142 67/121/143 59/84/144 58/82/145
s 8
f 67/121/146 60/71/147 52/86/148 59/84/149
s 1
f 52/70/121 53/72/120 97/75/150 94/73/151
s 2
f 53/72/125 54/74/124 100/77/152 97/75/153
s 3
f 54/74/129 55/76/128 103/79/154 100/77/155
s 4
f 55/76/133 56/78/132 106/81/156 103/79/157
s 5
f 56/78/137 57/80/136 109/83/158 106/81/159
s 6
f 57/80/141 58/82/140 112/85/160 109/83/161
s 7
f 58/82/145 59/84/144 115/87/162 112/85/163
s 8
f 59/84/149 52/86/148 94/123/164 115/87/165
s 9
f 73/89/166 70/88/167 50/95/168
f 76/90/169 73/89/166 50/95/168
f 79/91/170 76/90/169 50/95/168
f 82/92/171 79/91/170 50/95/168
f 85/93/172 82/92/171 50/95/168
f 88/94/173 85/93/172 50/95/168
f 91/96/174 88/94/173 50/95/168
f 70/88/167 91/96/174 50/95/168
s 10
f 92/104/175 95/97/176 51/105/177
f 95/97/176 98/98/178 51/105/177
f 98/98/178 101/99/179 51/105/177
f 101/99/179 104/100/180 51/105/177
f 104/100/180 107/101/181 51/105/177
f 107/101/181 110/102/182 51/105/177
f 110/102/182 113/103/183 51/105/177
f 113/103/183 92/104/175 51/105/177
s 1
f 68/122/184 71/106/185 61/109/119 60/107/118
s 2
f 71/106/186 74/108/187 62/111/123 61/109/122
s 3
f 74/108/188 77/110/189 63/113/127 62/111/126
s 4
f 77/110/190 80/112/191 64/115/131 63/113/130
s 5
f 80/112/192 83/114/193 65/117/135 64/115/134
s 6
f 83/114/194 86/116/195 66/119/139 65/117/138
s 7
f 86/116/196 89/118/197 67/121/143 66/119/142
s 8
f 89/118/198 68/120/199 60/71/147 67/121/146
s off
f 68/122/200 69/126/201 72/128/202 71/106/203
s 9
f 69/125/204 70/88/167 73/89/166 72/127/205
s off
f 71/106/206 72/128/207 75/130/208 74/108/209
s 9
f 72/127/205 73/89/166 76/90/169 75/129/210
s off
f 74/108/211 75/130/212 78/132/213 77/110/214
s 9
f 75/129/210 76/90/169 79/91/170 78/131/215
s off
f 77/110/216 78/132/217 81/134/218 80/112/219
s 9
f 78/131/215 79/91/170 82/92/171 81/133/220
s off
f 80/112/221 81/134/222 84/136/223 83/114/224
s 9
f 81/133/220 82/92/171 85/93/172 84/135/225
s off
f 83/114/226 84/136/227 87/138/228 86/116/229
s 9
f 84/135/225 85/93/172 88/94/173 87/137/230
s off
f 86/116/231 87/138/232 90/140/233 89/118/234
s 9
f 87/137/230 88/94/173 91/96/174 90/139/235
f 70/88/167 69/125/204 90/139/235 91/96/174
s off
f 69/124/236 68/120/237 89/118/238 90/140/239
s 10
f 92/104/175 93/141/240 96/145/241 95/97/176
f 93/143/240 94/73/242 97/75/243 96/144/241
f 95/97/176 96/145/241 99/147/244 98/98/178
f 96/144/241 97/75/245 100/77/246 99/146/244
f 98/98/178 99/147/244 102/149/247 101/99/179
f 99/146/244 100/77/248 103/79/249 102/148/247
f 101/99/179 102/149/247 105/151/250 104/100/180
f 102/148/247 103/79/251 106/81/252 105/150/250
f 104/100/180 105/151/250 108/153/253 107/101/181
f 105/150/250 106/81/254 109/83/255 108/152/253
f 107/101/181 108/153/253 111/155/256 110/102/182
f 108/152/253 109/83/257 112/85/258 111/154/256
f 110/102/182 111/155/256 114/157/259 113/103/183
f 111/154/256 112/85/260 115/87/261 114/156/259
f 94/123/262 93/142/240 114/156/259 115/87/263
f 93/141/240 92/104/175 113/103/183 114/157/259
